<svg width="28" height="26" fill="none" xmlns="http://www.w3.org/2000/svg"><path fill-rule="evenodd" clip-rule="evenodd" d="M3.863 9.641h17.062c.583 0 1.01.55.87 1.114l-1.822 7.283a.896.896 0 0 1-.817.677l-14.321.842c.256.598.849 1.01 1.53 1.01h10.008a2.72 2.72 0 0 1 2.717 2.716A2.72 2.72 0 0 1 16.373 26c-1.878 0-3.197-1.872-2.555-3.642H8.913C9.556 24.13 8.233 26 6.358 26 4.1 26 2.83 23.385 4.22 21.611c-.77-.61-1.218-1.508-1.29-2.335a175779.17 175779.17 0 0 0-.98-10.91v.001c.072.796.169 1.876-.051-.575H.896A.896.896 0 0 1 .896 6h1.82c.465 0 .852.354.894.816l.253 2.825Zm1.57 13.642a.926.926 0 0 0 1.85 0 .926.926 0 0 0-1.85 0Zm10.94.925a.926.926 0 0 1 0-1.85.926.926 0 0 1 0 1.85Zm-11.78-6.432 13.801-.811 1.383-5.531H4.024l.57 6.342Z" fill="#1D2026"/><g clip-path="url(#a)"><rect x="9" width="19" height="13" rx="6.5" fill="#FF7E1B"/><path d="m15.43 12.365.576-1.113c.26.192.516.337.767.434.253.098.5.147.737.147.23 0 .434-.044.61-.132.18-.088.32-.21.42-.366a.968.968 0 0 0 .151-.537.888.888 0 0 0-.415-.781c-.276-.19-.662-.284-1.157-.284h-.312V8.688h.312c.267 0 .505-.042.713-.126.212-.088.378-.207.498-.357a.822.822 0 0 0 .049-.957.854.854 0 0 0-.352-.298 1.142 1.142 0 0 0-.508-.107c-.198 0-.406.042-.624.127a3.121 3.121 0 0 0-.68.385l-.658-1.044c.286-.251.61-.443.971-.577a3.174 3.174 0 0 1 1.133-.205c.44 0 .829.08 1.167.24.342.16.61.379.806.659.198.28.298.602.298.967 0 .397-.116.751-.347 1.064a2.225 2.225 0 0 1-.913.718c.491.136.877.364 1.157.683.283.32.425.707.425 1.163 0 .406-.114.77-.342 1.093a2.315 2.315 0 0 1-.923.757c-.39.182-.835.274-1.333.274-.41 0-.805-.067-1.186-.2a3.586 3.586 0 0 1-1.04-.582Z" fill="#fff"/></g><defs><clipPath id="a"><path fill="#fff" transform="translate(9)" d="M0 0h19v13H0z"/></clipPath></defs></svg>